{"title":"Sharknado.3.Oh.Hell.No.2015.UNCUT.BRRip.x264-MenaceIISociety","uid":12290816,"size":1077552125,"categoryP":"video","categoryS":"movies","magnet":"?xt=urn:btih:bfb1196a450e6b6f71d61739749ad1c4eb86b54f&amp;dn=Sharknado.3.Oh.Hell.No.2015.UNCUT.BRRip.x264-MenaceIISociety&amp;tr=udp%3A%2F%2Ftracker.openbittorrent.com%3A80&amp;tr=udp%3A%2F%2Fopen.demonii.com%3A1337&amp;tr=udp%3A%2F%2Ftracker.coppersurfer.tk%3A6969&amp;tr=udp%3A%2F%2Fexodus.desync.com%3A6969","seeders":0,"leechers":0,"uploader":"TvTeam","files":4,"time":1440546955,"description":"------------------------------------------------------------------------\n\n &lt;a href=&quot; https://www.torrenting.com&quot; rel=&quot;nofollow&quot; target=&quot;_NEW&quot;&gt; https://www.torrenting.com&lt;/a&gt;\n\nSign up is OPEN - for time being. Come and have fun\n\n.......................................................................................................................[center][img]http://i.imgur.com/ZH1qTg3.jpg[/img]\n\nSharknado.3.Oh.Hell.No.2015.UNCUT.BRRip.x264-MenaceIISociety &lt;a href=&quot;\nhttp://www.imdb.com/title/tt3899796/&quot; rel=&quot;nofollow&quot; target=&quot;_NEW&quot;&gt;\nhttp://www.imdb.com/title/tt3899796/&lt;/a&gt;\n\nSource: ENCOUNTERS [THANKS]\n\nGeneral\nComplete name                            : Sharknado.3.Oh.Hell.No.2015.UNCUT.BRRip.x264-MenaceIISociety.mp4\nFormat                                   : MPEG-4\nFormat profile                           : Base Media\nCodec ID                                 : isom\nFile size                                : 1 003 MiB\nDuration                                 : 1h 28mn\nOverall bit rate mode                    : Variable\nOverall bit rate                         : 1 575 Kbps\nEncoded date                             : UTC 2015-08-25 20:52:59\nTagged date                              : UTC 2015-08-25 20:52:59\n\nVideo\nID                                       : 1\nFormat                                   : AVC\nFormat/Info                              : Advanced Video Codec\nFormat profile                           : &lt;a class=&quot;__cf_email__&quot; href=&quot;/cdn-cgi/l/email-protection&quot; data-cfemail=&quot;246c4d434c6468100a15&quot;&gt;[email&amp;#160;protected]&lt;/a&gt;&lt;script data-cfhash='f9e31' type=&quot;text/javascript&quot;&gt;\n/* &lt;![CDATA[ */!function(){try{var t=&quot;currentScript&quot;in document?document.currentScript:function(){for(var t=document.getElementsByTagName(&quot;script&quot;),e=t.length;e--;)if(t[e].getAttribute(&quot;data-cfhash&quot;))return t[e]}();if(t&amp;&amp;t.previousSibling){var e,r,n,i,c=t.previousSibling,a=c.getAttribute(&quot;data-cfemail&quot;);if(a){for(e=&quot;&quot;,r=parseInt(a.substr(0,2),16),n=2;a.length-n;n+=2)i=parseInt(a.substr(n,2),16)^r,e+=String.fromCharCode(i);e=document.createTextNode(e),c.parentNode.replaceChild(e,c)}t.parentNode.removeChild(t);}}catch(u){}}()/* ]]&gt; */&lt;/script&gt;\nFormat settings, CABAC                   : Yes\nFormat settings, ReFrames                : 3 frames\nCodec ID                                 : avc1\nCodec ID/Info                            : Advanced Video Coding\nDuration                                 : 1h 28mn\nBit rate mode                            : Variable\nBit rate                                 : 1 220 Kbps\nMaximum bit rate                         : 40.0 Mbps\nWidth                                    : 720 pixels\nHeight                                   : 400 pixels\nDisplay aspect ratio                     : 16:9\nFrame rate mode                          : Constant\nFrame rate                               : 23.976 fps\nColor space                              : YUV\nChroma subsampling                       : 4:2:0\nBit depth                                : 8 bits\nScan type                                : Progressive\nBits/(Pixel*Frame)                       : 0.177\nStream size                              : 776 MiB (77%)\nWriting library                          : x264 core 148 r2579 73ae2d1\n\nAudio\nID                                       : 2\nFormat                                   : AAC\nFormat/Info                              : Advanced Audio Codec\nFormat profile                           : LC\nCodec ID                                 : 40\nDuration                                 : 1h 28mn\nBit rate mode                            : Variable\nBit rate                                 : 353 Kbps\nMaximum bit rate                         : 399 Kbps\nChannel(s)                               : 6 channels\nChannel positions                        : Front: L C R, Side: L R, LFE\nSampling rate                            : 48.0 KHz\nCompression mode                         : Lossy\nStream size                              : 224 MiB (22%)\nLanguage                                 : English\nEncoded date                             : UTC 2015-08-25 20:40:56\nTagged date                              : UTC 2015-08-25 20:56:13 \n\n[img]http://s24.postimg.org/63yqfkro5/vlcsnap_2015_08_25_23h01m08s556.jpg[/img]\n[img]http://s24.postimg.org/qpdi7h991/vlcsnap_2015_08_25_23h01m22s922.jpg[/img]\n[img]http://s24.postimg.org/o9botmr6d/vlcsnap_2015_08_25_23h01m33s508.jpg[/img]\n[img]http://s24.postimg.org/oalmn1t05/vlcsnap_2015_08_25_23h01m45s829.jpg[/img] \n \n[img]http://s17.postimg.org/r1iiyw8yn/Untitled_1.png[/img][/center]","torrent":{"xt":"urn:btih:bfb1196a450e6b6f71d61739749ad1c4eb86b54f","amp;dn":"Sharknado.3.Oh.Hell.No.2015.UNCUT.BRRip.x264-MenaceIISociety","amp;tr":["udp%3A%2F%2Ftracker.openbittorrent.com%3A80","udp%3A%2F%2Fopen.demonii.com%3A1337","udp%3A%2F%2Ftracker.coppersurfer.tk%3A6969","udp%3A%2F%2Fexodus.desync.com%3A6969"],"infoHash":"bfb1196a450e6b6f71d61739749ad1c4eb86b54f","infoHashBuffer":{"type":"Buffer","data":[191,177,25,106,69,14,107,111,113,214,23,57,116,154,209,196,235,134,181,79]},"announce":[],"urlList":[]}}